<?xml version="1.0" encoding="utf-8"?>
<!-- Generator: Adobe Illustrator 24.1.0, SVG Export Plug-In . SVG Version: 6.00 Build 0)  -->
<svg version="1.1" id="Layer_1" xmlns="http://www.w3.org/2000/svg" xmlns:xlink="http://www.w3.org/1999/xlink" x="0px" y="0px"
	 viewBox="0 0 150 150" style="enable-background:new 0 0 150 150;" xml:space="preserve">
<style type="text/css">
	.st0{fill:#FFFFFF;}
</style>
<path class="st0" d="M76.1,15.3c-33.1,0-60,26.9-60,60s26.9,60,60,60s60-26.9,60-60S109.2,15.3,76.1,15.3z M76.1,34.4
	c3.8,0,6.9,3.1,6.9,7s-3,7-6.9,6.9c-3.8,0-6.9-3.2-6.9-6.9C69.2,37.6,72.3,34.4,76.1,34.4z M107,56.9c-5.5,0.6-11,1.3-16.5,1.9
	c-3.5,0.4-4.9,2.1-5.1,5.7C84.8,75.2,86.6,85.6,89,96c1,4.3,1.8,8.7,2.7,13c0.5,2.2-0.3,3.7-1.9,4.2c-1.9,0.5-3.3-0.4-4-2.7
	c-2.2-7.4-4.4-14.8-6.6-22.3c-0.8-2.6-1.5-3.5-3-3.4c-2.1,0.1-2.4,1.9-2.9,3.4c-2.2,7.4-4.3,14.7-6.5,22.1c-0.6,2.2-1.6,3-3.3,3
	c-1.7-0.1-2.7-1.1-2.8-2.7c-0.1-1.3,0.3-2.5,0.5-3.7c1.7-8.7,3.8-17.2,5.2-26C67.4,75,67,69,67,63.1c0-2.3-1.5-3.8-4.1-4.2
	c-4-0.6-8-1-12-1.4c-1.9-0.2-3.7-0.4-5.6-0.7c-1.9-0.2-2.8-1.2-2.7-2.8s1.1-2.4,3-2.4c10.2,0,20.5,0,30.7,0c9.8,0,19.7,0,29.5,0
	c0.3,0,0.6,0,0.9,0c2.1,0,3.3,0.9,3.4,2.5C110.2,55.6,109.1,56.6,107,56.9z"/>
</svg>
